# xmcd
#
# Track frame offsets: 
#        150
#        10778
#        24220
#        37120
#        46970
#        60185
#        74283
#        87273
#        100625
#        113255
#
# Disc length: 1692 seconds
#
# Revision: 2
# Processed by: cddbd v1.4PL0 Copyright (c) Steve Scherf et al.
# Submitted via: ExactAudioCopy v0.90b4
#
DISCID=67069a0a
DTITLE=Ronnie McDowell - I'm Still Missing You
DYEAR=1900
DGENRE=Country
TTITLE0=It's Only Make Believe
TTITLE1=Cry To Me
TTITLE2=Ain't Love Wonderful
TTITLE3=Party Girl
TTITLE4=Rock And Roll Kiss
TTITLE5=Smokey Places
TTITLE6=Tryin' To Find That Girl
TTITLE7=Suspicion
TTITLE8=I'm Still Missing You
TTITLE9=Never Too Old To Rock 'N' Roll
EXTD=
EXTT0=
EXTT1=
EXTT2=
EXTT3=
EXTT4=
EXTT5=
EXTT6=
EXTT7=
EXTT8=
EXTT9=
PLAYORDER=
